{
  "source": "C:\\Users\\Peter\\Desktop\\stuff\\MIUN\\quantitative_research\\video_compression\\videos\\BVI-HD\\BVI-HD_CDVL_videos\\ORIG\\BallUnderWater_1920x1080_60fps.mp4",
  "output": "C:\\Users\\Peter\\Desktop\\stuff\\MIUN\\quantitative_research\\video_compression\\compressed_videos\\BVI-HD\\av1\\8\\BallUnderWater_1920x1080_60fps_av1.mkv",
  "codec": "av1",
  "ok": "Input #0, mov,mp4,m4a,3gp,3g2,mj2, from 'C:\\Users\\Peter\\Desktop\\stuff\\MIUN\\quantitative_research\\video_compression\\videos\\BVI-HD\\BVI-HD_CDVL_videos\\ORIG\\BallUnderWater_1920x1080_60fps.mp4':\n  Metadata:\n    major_brand     : isom\n    minor_version   : 512\n    compatible_brands: isomiso2avc1mp41\n    encoder         : Lavf54.28.101\n  Duration: 00:00:05.00, start: 0.000000, bitrate: 212030 kb/s\n  Stream #0:0[0x1](und): Video: h264 (High 4:4:4 Predictive) (avc1 / 0x31637661), yuv420p(progressive), 1920x1080, 212025 kb/s, 60 fps, 60 tbr, 60 tbn (default)\n    Metadata:\n      handler_name    : VideoHandler\n      vendor_id       : [0][0][0][0]\n[out#0/matroska @ 000001cf917ca0c0] Codec AVOption b:a (set bitrate (in bits/s)) has not been used for any stream. The most likely reason is either wrong type (e.g. a video option with no video streams) or that it is a private option of some decoder which was not actually used for any stream.\nStream mapping:\n  Stream #0:0 -> #0:0 (h264 (native) -> av1 (libsvtav1))\nPress [q] to stop, [?] for help\nSvt[info]: -------------------------------------------\nSvt[info]: SVT [version]:\tSVT-AV1 Encoder Lib v3.1.0-19-g6ecfe8ec\nSvt[info]: SVT [build]  :\tGCC 15.2.0\t 64 bit\nSvt[info]: LIB Build date: Aug 17 2025 11:37:13\nSvt[info]: -------------------------------------------\nSvt[info]: Level of Parallelism: 5\nSvt[info]: Number of PPCS 93\nSvt[info]: [asm level on system : up to avx2]\nSvt[info]: [asm level selected : up to avx2]\nSvt[info]: -------------------------------------------\nSvt[info]: SVT [config]: main profile\ttier (auto)\tlevel (auto)\nSvt[info]: SVT [config]: width / height / fps numerator / fps denominator \t\t: 1920 / 1080 / 60 / 1\nSvt[info]: SVT [config]: bit-depth / color format \t\t\t\t\t: 8 / YUV420\nSvt[info]: SVT [config]: preset / tune / pred struct \t\t\t\t\t: 4 / PSNR / random access\nSvt[info]: SVT [config]: gop size / mini-gop size / key-frame type \t\t\t: 321 / 16 / key frame\nSvt[info]: SVT [config]: BRC mode / target bitrate (kbps)\t\t\t\t: VBR / 8000 \nSvt[info]: SVT [config]: AQ mode / Variance Boost \t\t\t\t\t: 2 / 0\nSvt[info]: SVT [config]: sharpness / luminance-based QP bias \t\t\t\t: 0 / 0\nSvt[info]: SVT [config]: QP scale compress strength \t\t\t\t\t: 0\nSvt[info]: -------------------------------------------\nOutput #0, matroska, to 'C:\\Users\\Peter\\Desktop\\stuff\\MIUN\\quantitative_research\\video_compression\\compressed_videos\\BVI-HD\\av1\\8\\BallUnderWater_1920x1080_60fps_av1.mkv':\n  Metadata:\n    major_brand     : isom\n    minor_version   : 512\n    compatible_brands: isomiso2avc1mp41\n    encoder         : Lavf62.3.100\n  Stream #0:0(und): Video: av1 (AV01 / 0x31305641), yuv420p(tv, progressive), 1920x1080, q=2-31, 8000 kb/s, 60 fps, 1k tbn (default)\n    Metadata:\n      encoder         : Lavc62.11.100 libsvtav1\n      handler_name    : VideoHandler\n      vendor_id       : [0][0][0][0]\n    Side data:\n      cpb: bitrate max/min/avg: 0/0/8000000 buffer size: 8000000 vbv_delay: N/A\nframe=    0 fps=0.0 q=0.0 size=       0KiB time=N/A bitrate=N/A speed=N/A elapsed=0:00:01.01    \nframe=    0 fps=0.0 q=0.0 size=       0KiB time=N/A bitrate=N/A speed=N/A elapsed=0:00:01.57    \nframe=    0 fps=0.0 q=0.0 size=       0KiB time=N/A bitrate=N/A speed=N/A elapsed=0:00:02.12    \nframe=    0 fps=0.0 q=0.0 size=       0KiB time=N/A bitrate=N/A speed=N/A elapsed=0:00:02.64    \nframe=    1 fps=0.3 q=9.0 size=       1KiB time=00:00:00.00 bitrate=N/A speed=   0x elapsed=0:00:03.17    \nframe=    1 fps=0.3 q=9.0 size=       1KiB time=00:00:00.00 bitrate=N/A speed=   0x elapsed=0:00:03.70    \nframe=    5 fps=1.2 q=23.0 size=       1KiB time=00:00:00.06 bitrate=  85.4kbits/s speed=0.0158x elapsed=0:00:04.22    \nframe=    9 fps=1.9 q=19.0 size=       1KiB time=00:00:00.13 bitrate=  42.7kbits/s speed=0.0277x elapsed=0:00:04.81    \nframe=   14 fps=2.6 q=21.0 size=       1KiB time=00:00:00.21 bitrate=  26.3kbits/s speed=0.0404x elapsed=0:00:05.36    \nframe=   19 fps=3.2 q=22.0 size=       1KiB time=00:00:00.30 bitrate=  19.0kbits/s speed=0.051x elapsed=0:00:05.88    \nframe=   23 fps=3.6 q=22.0 size=       1KiB time=00:00:00.36 bitrate=  15.5kbits/s speed=0.0572x elapsed=0:00:06.40    \nframe=   27 fps=3.9 q=22.0 size=       1KiB time=00:00:00.43 bitrate=  13.1kbits/s speed=0.0623x elapsed=0:00:06.96    \nframe=   32 fps=4.2 q=21.0 size=       1KiB time=00:00:00.51 bitrate=  11.0kbits/s speed=0.0686x elapsed=0:00:07.53    \nframe=   36 fps=4.5 q=22.0 size=       1KiB time=00:00:00.58 bitrate=   9.8kbits/s speed=0.0725x elapsed=0:00:08.05    \nframe=   39 fps=4.5 q=22.0 size=       1KiB time=00:00:00.63 bitrate=   9.0kbits/s speed=0.0739x elapsed=0:00:08.57    \nframe=   43 fps=4.7 q=22.0 size=       1KiB time=00:00:00.70 bitrate=   8.1kbits/s speed=0.0768x elapsed=0:00:09.11    \nframe=   49 fps=5.1 q=9.0 size=       1KiB time=00:00:00.80 bitrate=   7.1kbits/s speed=0.0827x elapsed=0:00:09.67    \nframe=   53 fps=5.2 q=20.0 size=       1KiB time=00:00:00.86 bitrate=   6.6kbits/s speed=0.085x elapsed=0:00:10.19    \nframe=   57 fps=5.3 q=14.0 size=       1KiB time=00:00:00.93 bitrate=   6.1kbits/s speed=0.0868x elapsed=0:00:10.75    \nframe=   61 fps=5.4 q=18.0 size=       1KiB time=00:00:01.00 bitrate=   5.7kbits/s speed=0.0884x elapsed=0:00:11.31    \nframe=   67 fps=5.7 q=22.0 size=       1KiB time=00:00:01.10 bitrate=   5.2kbits/s speed=0.0929x elapsed=0:00:11.84    \nframe=   70 fps=5.7 q=21.0 size=       1KiB time=00:00:01.15 bitrate=   5.0kbits/s speed=0.093x elapsed=0:00:12.36    \nframe=   74 fps=5.7 q=20.0 size=       1KiB time=00:00:01.21 bitrate=   4.7kbits/s speed=0.0944x elapsed=0:00:12.88    \nframe=   80 fps=6.0 q=19.0 size=       1KiB time=00:00:01.31 bitrate=   4.3kbits/s speed=0.0981x elapsed=0:00:13.42    \nframe=   84 fps=6.0 q=17.0 size=       1KiB time=00:00:01.38 bitrate=   4.1kbits/s speed=0.0992x elapsed=0:00:13.94    \nframe=   87 fps=6.0 q=21.0 size=       1KiB time=00:00:01.43 bitrate=   4.0kbits/s speed=0.099x elapsed=0:00:14.47    \nframe=   91 fps=6.1 q=21.0 size=       1KiB time=00:00:01.50 bitrate=   3.8kbits/s speed= 0.1x elapsed=0:00:15.00    \nframe=   96 fps=6.2 q=20.0 size=       1KiB time=00:00:01.58 bitrate=   3.6kbits/s speed=0.102x elapsed=0:00:15.52    \nframe=  100 fps=6.2 q=19.0 size=       1KiB time=00:00:01.65 bitrate=   3.5kbits/s speed=0.103x elapsed=0:00:16.03    \nframe=  103 fps=6.2 q=22.0 size=       1KiB time=00:00:01.70 bitrate=   3.4kbits/s speed=0.103x elapsed=0:00:16.57    \nframe=  108 fps=6.3 q=18.0 size=       1KiB time=00:00:01.78 bitrate=   3.2kbits/s speed=0.104x elapsed=0:00:17.16    \nframe=  112 fps=6.3 q=19.0 size=       1KiB time=00:00:01.85 bitrate=   3.1kbits/s speed=0.105x elapsed=0:00:17.67    \nframe=  117 fps=6.4 q=17.0 size=       1KiB time=00:00:01.93 bitrate=   2.9kbits/s speed=0.106x elapsed=0:00:18.21    \nframe=  119 fps=6.3 q=21.0 size=       1KiB time=00:00:01.96 bitrate=   2.9kbits/s speed=0.105x elapsed=0:00:18.75    \nframe=  125 fps=6.5 q=17.0 size=       1KiB time=00:00:02.06 bitrate=   2.8kbits/s speed=0.107x elapsed=0:00:19.28    \nframe=  130 fps=6.6 q=20.0 size=       1KiB time=00:00:02.15 bitrate=   2.6kbits/s speed=0.109x elapsed=0:00:19.81    \nframe=  134 fps=6.6 q=21.0 size=       1KiB time=00:00:02.21 bitrate=   2.6kbits/s speed=0.109x elapsed=0:00:20.36    \nframe=  138 fps=6.6 q=22.0 size=       1KiB time=00:00:02.28 bitrate=   2.5kbits/s speed=0.109x elapsed=0:00:20.89    \nframe=  144 fps=6.7 q=17.0 size=       1KiB time=00:00:02.38 bitrate=   2.4kbits/s speed=0.111x elapsed=0:00:21.40    \nframe=  149 fps=6.8 q=19.0 size=       1KiB time=00:00:02.46 bitrate=   2.3kbits/s speed=0.112x elapsed=0:00:21.93    \nframe=  153 fps=6.8 q=15.0 size=       1KiB time=00:00:02.50 bitrate=   2.3kbits/s speed=0.111x elapsed=0:00:22.43    \nframe=  157 fps=6.8 q=18.0 size=       1KiB time=00:00:02.60 bitrate=   2.2kbits/s speed=0.113x elapsed=0:00:23.06    \nframe=  162 fps=6.9 q=23.0 size=       1KiB time=00:00:02.68 bitrate=   2.1kbits/s speed=0.114x elapsed=0:00:23.58    \nframe=  166 fps=6.9 q=23.0 size=       1KiB time=00:00:02.75 bitrate=   2.1kbits/s speed=0.114x elapsed=0:00:24.11    \nframe=  170 fps=6.9 q=23.0 size=       1KiB time=00:00:02.81 bitrate=   2.0kbits/s speed=0.114x elapsed=0:00:24.63    \nframe=  177 fps=7.0 q=9.0 size=       1KiB time=00:00:02.93 bitrate=   1.9kbits/s speed=0.116x elapsed=0:00:25.17    \nframe=  182 fps=7.1 q=23.0 size=       1KiB time=00:00:03.01 bitrate=   1.9kbits/s speed=0.117x elapsed=0:00:25.71    \nframe=  186 fps=7.1 q=23.0 size=       1KiB time=00:00:03.08 bitrate=   1.8kbits/s speed=0.118x elapsed=0:00:26.23    \nframe=  192 fps=7.2 q=22.0 size=       1KiB time=00:00:03.18 bitrate=   1.8kbits/s speed=0.119x elapsed=0:00:26.76    \nframe=  196 fps=7.2 q=22.0 size=       1KiB time=00:00:03.25 bitrate=   1.8kbits/s speed=0.119x elapsed=0:00:27.28    \nframe=  200 fps=7.2 q=22.0 size=       1KiB time=00:00:03.31 bitrate=   1.7kbits/s speed=0.119x elapsed=0:00:27.80    \nframe=  207 fps=7.3 q=20.0 size=       1KiB time=00:00:03.43 bitrate=   1.7kbits/s speed=0.121x elapsed=0:00:28.36    \nframe=  213 fps=7.4 q=20.0 size=       1KiB time=00:00:03.53 bitrate=   1.6kbits/s speed=0.122x elapsed=0:00:28.92    \nframe=  217 fps=7.4 q=17.0 size=       1KiB time=00:00:03.60 bitrate=   1.6kbits/s speed=0.122x elapsed=0:00:29.47    \nframe=  221 fps=7.4 q=19.0 size=       1KiB time=00:00:03.66 bitrate=   1.6kbits/s speed=0.122x elapsed=0:00:29.99    \nframe=  225 fps=7.4 q=10.0 size=       1KiB time=00:00:03.73 bitrate=   1.5kbits/s speed=0.122x elapsed=0:00:30.51    \nframe=  233 fps=7.5 q=17.0 size=       1KiB time=00:00:03.86 bitrate=   1.5kbits/s speed=0.125x elapsed=0:00:31.03    \nframe=  235 fps=7.4 q=22.0 size=       1KiB time=00:00:03.90 bitrate=   1.5kbits/s speed=0.124x elapsed=0:00:31.56    \nframe=  241 fps=7.5 q=10.0 size=       1KiB time=00:00:04.00 bitrate=   1.4kbits/s speed=0.124x elapsed=0:00:32.14    \nframe=  245 fps=7.5 q=19.0 size=       1KiB time=00:00:04.06 bitrate=   1.4kbits/s speed=0.124x elapsed=0:00:32.67    \nframe=  249 fps=7.5 q=17.0 size=       1KiB time=00:00:04.13 bitrate=   1.4kbits/s speed=0.125x elapsed=0:00:33.19    \nframe=  253 fps=7.5 q=19.0 size=       1KiB time=00:00:04.20 bitrate=   1.4kbits/s speed=0.125x elapsed=0:00:33.72    \nframe=  261 fps=7.6 q=21.0 size=       1KiB time=00:00:04.33 bitrate=   1.3kbits/s speed=0.127x elapsed=0:00:34.25    \nframe=  265 fps=7.6 q=18.0 size=       1KiB time=00:00:04.40 bitrate=   1.3kbits/s speed=0.126x elapsed=0:00:34.82    \nframe=  269 fps=7.6 q=20.0 size=       1KiB time=00:00:04.46 bitrate=   1.3kbits/s speed=0.126x elapsed=0:00:35.39    \nframe=  275 fps=7.7 q=24.0 size=       1KiB time=00:00:04.56 bitrate=   1.2kbits/s speed=0.127x elapsed=0:00:35.92    \nframe=  281 fps=7.7 q=20.0 size=       1KiB time=00:00:04.66 bitrate=   1.2kbits/s speed=0.128x elapsed=0:00:36.44    \nframe=  285 fps=7.7 q=25.0 size=       1KiB time=00:00:04.73 bitrate=   1.2kbits/s speed=0.128x elapsed=0:00:36.98    \nframe=  295 fps=7.9 q=25.0 size=       1KiB time=00:00:04.90 bitrate=   1.2kbits/s speed=0.131x elapsed=0:00:37.48    \n[out#0/matroska @ 000001cf917ca0c0] video:4770KiB audio:0KiB subtitle:0KiB other streams:0KiB global headers:0KiB muxing overhead: 0.044816%\nframe=  300 fps=8.0 q=27.0 Lsize=    4772KiB time=00:00:04.98 bitrate=7844.7kbits/s speed=0.133x elapsed=0:00:37.50    \n",
  "seconds": 37.922091007232666,
  "probe_out": {}
}